<svg preserveAspectRatio="none" width="100%" height="100%" overflow="visible" style="display: block;" viewBox="0 0 174.467 197.383" fill="none" xmlns="http://www.w3.org/2000/svg">
<g id="Group 94724245">
<path id="Exclude" d="M119.226 6.24047C116.641 3.47194 118.633 0.029649 121.634 2.34195C158.709 30.9125 182.589 81.2375 169.524 126.235C158.547 164.037 125.843 191.019 88.714 195.82C60.925 198.326 27.4661 186.564 10.4527 162.849C2.04591 151.132 -1.42053 136.129 2.35089 121.942C7.42873 102.836 26.2153 92.7043 44.0242 98.4603C50.9712 100.702 56.9704 103.588 62.823 106.404C72.2138 110.922 81.2274 115.259 93.1744 116.461C121.635 119.327 146.989 97.5013 150.517 67.9156C153.062 46.5533 133.542 21.5631 119.226 6.24047ZM60.1839 146.642C55.0407 146.573 50.8149 150.686 50.7455 155.83C50.6763 160.973 54.7894 165.198 59.9324 165.268C65.0756 165.337 69.3021 161.224 69.3717 156.081C69.4412 150.938 65.3272 146.711 60.1839 146.642ZM30.918 146.247C25.7747 146.177 21.5491 150.29 21.4796 155.434C21.4103 160.577 25.5233 164.802 30.6665 164.872C35.8098 164.941 40.0353 160.828 40.1049 155.685C40.1743 150.542 36.0613 146.316 30.918 146.247Z" fill="var(--fill-0, #0065FF)"/>
</g>
</svg>
