<svg preserveAspectRatio="none" width="100%" height="100%" overflow="visible" style="display: block;" viewBox="0 0 174.466 197.384" fill="none" xmlns="http://www.w3.org/2000/svg">
<g id="Group 94724245">
<path id="Exclude" d="M119.226 6.24128C116.641 3.47274 118.633 0.029585 121.634 2.34179C158.709 30.9123 182.588 81.2383 169.523 126.236C158.547 164.037 125.843 191.02 88.7141 195.821C60.9251 198.327 27.4652 186.565 10.4519 162.85C2.04512 151.133 -1.42037 136.13 2.35105 121.943C7.42882 102.837 26.2145 92.7053 44.0234 98.461C50.9705 100.703 56.9705 103.589 62.8231 106.405C72.2139 110.923 81.2276 115.26 93.1745 116.462C121.635 119.328 146.989 97.502 150.517 67.9164C153.062 46.5541 133.542 21.5639 119.226 6.24128ZM60.184 146.643C55.0408 146.573 50.8153 150.686 50.7457 155.829C50.6762 160.973 54.7892 165.199 59.9325 165.269C65.0758 165.338 69.3015 161.224 69.3709 156.081C69.4402 150.938 65.3272 146.712 60.184 146.643ZM30.9181 146.246C25.7748 146.177 21.5482 150.291 21.4788 155.434C21.4096 160.577 25.5235 164.803 30.6667 164.873C35.8097 164.942 40.0354 160.829 40.105 155.686C40.1745 150.543 36.0613 146.316 30.9181 146.246Z" fill="var(--fill-0, white)"/>
</g>
</svg>
