<svg width="108" height="108" viewBox="235 -2 112 112" xmlns="http://www.w3.org/2000/svg">
  <style>
    path { fill: #000; }
    @media (prefers-color-scheme: dark) {
      path { fill: #fff; }
    }
  </style>
  <path d="M299.923 10.5475C298.536 9.56633 299.098 7.87376 300.626 8.6169C319.505 17.7988 334.565 37.7339 332.914 58.6847C331.526 76.2853 319.611 91.1074 303.738 96.5884C291.76 100.213 275.996 98.0851 266.37 89.2137C261.613 84.8309 258.727 78.556 259.095 71.9822C259.59 63.1292 266.922 56.9729 275.267 57.8836C278.522 58.2375 281.42 58.9605 284.246 59.6657C288.781 60.7974 293.134 61.883 298.491 61.3261C311.252 60 320.405 48.1108 319.268 34.7954C318.446 25.1813 307.603 15.9775 299.923 10.5475ZM286.741 77.5788C284.476 78.0156 282.994 80.2062 283.43 82.4715C283.867 84.7368 286.057 86.2198 288.322 85.7833C290.588 85.3467 292.07 83.1558 291.634 80.8904C291.197 78.625 289.006 77.1422 286.741 77.5788ZM273.851 80.0631C271.586 80.4998 270.103 82.6906 270.54 84.956C270.976 87.2212 273.167 88.7033 275.432 88.2667C277.697 87.8299 279.179 85.6401 278.743 83.3749C278.306 81.1096 276.116 79.6267 273.851 80.0631Z"/>
  <path d="M271.527 100.665C272.897 101.671 272.305 103.354 270.79 102.584C252.077 93.068 237.375 72.8674 239.399 51.9491C241.099 34.3759 253.275 19.7681 269.242 14.5701C281.283 11.1592 297.006 13.5666 306.474 22.6077C311.152 27.0743 313.926 33.3995 313.441 39.9658C312.788 48.8087 305.348 54.8336 297.021 53.7747C293.773 53.3631 290.888 52.5887 288.075 51.8333C283.561 50.6212 279.228 49.4584 273.862 49.92C261.08 51.0191 251.716 62.7438 252.617 76.0773C253.268 85.7045 263.945 95.0995 271.527 100.665ZM298.828 31.6234C301.1 31.2271 302.622 29.0638 302.226 26.7911C301.83 24.5183 299.665 22.9968 297.393 23.3931C295.12 23.7895 293.599 25.9534 293.996 28.2262C294.392 30.4987 296.555 32.0195 298.828 31.6234ZM285.898 33.8779C288.171 33.4816 289.692 31.3183 289.296 29.0456C288.9 26.7728 286.736 25.2513 284.463 25.6476C282.19 26.0439 280.668 28.208 281.065 30.4808C281.461 32.7535 283.625 34.2742 285.898 33.8779Z"/>
</svg>
