<svg width="459" height="108" viewBox="0 0 459 108" fill="none" xmlns="http://www.w3.org/2000/svg">
<path d="M404.23 95.29V82.9302H434.798C436.215 82.9302 436.924 81.9556 436.924 80.0064C436.924 77.9686 436.26 76.8168 434.931 76.551L421.375 74.2916C409.945 72.3424 404.23 65.5645 404.23 53.9578C404.23 38.9843 411.673 31.4976 426.558 31.4976H446.36L455.663 38.4084V50.7682H428.286C426.868 50.7682 426.159 51.7428 426.159 53.692C426.159 56.2614 426.868 57.6347 428.286 57.8119L441.841 60.0712C453.182 61.9319 458.853 68.4883 458.853 79.7406C458.853 94.7141 451.41 102.201 436.525 102.201H413.534L404.23 95.29Z" fill="black"/>
<path d="M349.645 102.201V26.1813C349.645 11.2964 357.087 3.854 371.972 3.854H385.528L394.831 10.7648V23.1246H373.567C372.415 23.1246 371.839 23.7005 371.839 24.8523V31.4974H393.502V50.768H371.839V102.201H349.645Z" fill="black"/>
<path d="M178.207 79.8733V10.499H200.401V31.4974H222.064V50.768H200.401V81.2023C200.401 82.3541 200.977 82.93 202.129 82.93H223.393V95.2898L214.09 102.201H200.534C185.649 102.201 178.207 94.7582 178.207 79.8733Z" fill="black"/>
<path d="M119.676 79.8733V10.499H141.87V31.4974H163.533V50.768H141.87V81.2023C141.87 82.3541 142.446 82.93 143.598 82.93H164.862V95.2898L155.559 102.201H142.003C127.118 102.201 119.676 94.7582 119.676 79.8733Z" fill="black"/>
<path d="M79.707 20.5996V0H102.433V20.5996H79.707ZM79.9728 102.201V31.4975H102.167V102.201H79.9728Z" fill="black"/>
<path d="M0 79.8733V53.8247C0 38.9398 7.44244 31.4974 22.3273 31.4974H39.7374V3.854H61.9318V102.201H22.3273C7.44244 102.201 0 94.7582 0 79.8733ZM22.1945 81.2023C22.1945 82.3541 22.7703 82.93 23.9222 82.93H39.7374V50.768H23.9222C22.7703 50.768 22.1945 51.3439 22.1945 52.4957V81.2023Z" fill="black"/>
<path d="M299.926 10.5476C298.54 9.56637 299.102 7.87378 300.63 8.61682C319.51 17.7988 334.568 37.7349 332.917 58.6858C331.529 76.2862 319.615 91.1083 303.743 96.5893C291.764 100.214 275.999 98.0862 266.373 89.2148C261.616 84.8321 258.731 78.5568 259.099 71.983C259.594 63.1299 266.926 56.9728 275.271 57.8835C278.526 58.2374 281.423 58.9606 284.249 59.6658C288.784 60.7975 293.138 61.8839 298.495 61.327C311.256 60.0008 320.409 48.1114 319.272 34.7963C318.45 25.182 307.606 15.9776 299.926 10.5476ZM273.854 80.0632C271.589 80.5001 270.107 82.6907 270.544 84.9559C270.98 87.2212 273.17 88.704 275.435 88.2677C277.701 87.8311 279.184 85.6402 278.747 83.3748C278.31 81.1094 276.12 79.6266 273.854 80.0632ZM286.745 77.5797C284.48 78.0163 282.997 80.2063 283.433 82.4716C283.87 84.7371 286.061 86.2199 288.326 85.7832C290.592 85.3466 292.074 83.1558 291.638 80.8904C291.201 78.6251 289.01 77.1432 286.745 77.5797Z" fill="black"/>
<path d="M271.532 100.665C272.901 101.671 272.309 103.354 270.794 102.583C252.081 93.0675 237.379 72.8676 239.403 51.9496C241.103 34.3764 253.279 19.7677 269.246 14.5696C281.286 11.1587 297.011 13.566 306.478 22.607C311.156 27.0737 313.929 33.4 313.445 39.9663C312.792 48.809 305.352 54.8341 297.025 53.7752C293.777 53.3635 290.893 52.589 288.08 51.8336C283.566 50.6215 279.232 49.4578 273.867 49.9194C261.084 51.0184 251.72 62.7442 252.62 76.0778C253.272 85.7049 263.95 95.0999 271.532 100.665ZM298.833 31.6237C301.105 31.2272 302.626 29.0633 302.23 26.7906C301.833 24.5181 299.67 22.9974 297.398 23.3934C295.125 23.7897 293.603 25.953 293.999 28.2257C294.396 30.4985 296.56 32.02 298.833 31.6237ZM285.902 33.8784C288.174 33.4821 289.696 31.3187 289.3 29.0461C288.904 26.7733 286.739 25.2518 284.467 25.648C282.194 26.0445 280.673 28.2084 281.07 30.4811C281.466 32.7536 283.629 34.2745 285.902 33.8784Z" fill="black"/>
</svg>
