<svg width="459" height="108" viewBox="0 0 459 108" fill="none" xmlns="http://www.w3.org/2000/svg">
<path d="M404.23 95.29V82.9302H434.798C436.215 82.9302 436.924 81.9556 436.924 80.0064C436.924 77.9686 436.26 76.8168 434.931 76.551L421.375 74.2916C409.945 72.3424 404.23 65.5645 404.23 53.9578C404.23 38.9843 411.673 31.4976 426.558 31.4976H446.36L455.663 38.4084V50.7682H428.286C426.868 50.7682 426.159 51.7428 426.159 53.692C426.159 56.2614 426.868 57.6347 428.286 57.8119L441.841 60.0712C453.182 61.9319 458.853 68.4883 458.853 79.7406C458.853 94.7141 451.41 102.201 436.525 102.201H413.534L404.23 95.29Z" fill="white"/>
<path d="M349.645 102.201V26.1813C349.645 11.2964 357.087 3.854 371.972 3.854H385.528L394.831 10.7648V23.1246H373.567C372.415 23.1246 371.839 23.7005 371.839 24.8523V31.4974H393.502V50.768H371.839V102.201H349.645Z" fill="white"/>
<path d="M178.207 79.8733V10.499H200.401V31.4974H222.064V50.768H200.401V81.2023C200.401 82.3541 200.977 82.93 202.129 82.93H223.393V95.2898L214.09 102.201H200.534C185.649 102.201 178.207 94.7582 178.207 79.8733Z" fill="white"/>
<path d="M119.676 79.8733V10.499H141.87V31.4974H163.533V50.768H141.87V81.2023C141.87 82.3541 142.446 82.93 143.598 82.93H164.862V95.2898L155.559 102.201H142.003C127.118 102.201 119.676 94.7582 119.676 79.8733Z" fill="white"/>
<path d="M79.707 20.5996V0H102.433V20.5996H79.707ZM79.9728 102.201V31.4975H102.167V102.201H79.9728Z" fill="white"/>
<path d="M0 79.8733V53.8247C0 38.9398 7.44244 31.4974 22.3273 31.4974H39.7374V3.854H61.9318V102.201H22.3273C7.44244 102.201 0 94.7582 0 79.8733ZM22.1945 81.2023C22.1945 82.3541 22.7704 82.93 23.9222 82.93H39.7374V50.768H23.9222C22.7704 50.768 22.1945 51.3439 22.1945 52.4957V81.2023Z" fill="white"/>
<path d="M299.923 10.5475C298.536 9.56633 299.098 7.87376 300.626 8.6169C319.505 17.7988 334.565 37.7339 332.914 58.6847C331.526 76.2853 319.611 91.1074 303.738 96.5884C291.76 100.213 275.996 98.0851 266.37 89.2137C261.613 84.8309 258.727 78.556 259.095 71.9822C259.59 63.1292 266.922 56.9729 275.267 57.8836C278.522 58.2375 281.42 58.9605 284.246 59.6657C288.781 60.7974 293.134 61.883 298.491 61.3261C311.252 60 320.405 48.1108 319.268 34.7954C318.446 25.1813 307.603 15.9775 299.923 10.5475ZM286.741 77.5788C284.476 78.0156 282.994 80.2062 283.43 82.4715C283.867 84.7368 286.057 86.2198 288.322 85.7833C290.588 85.3467 292.07 83.1558 291.634 80.8904C291.197 78.625 289.006 77.1422 286.741 77.5788ZM273.851 80.0631C271.586 80.4998 270.103 82.6906 270.54 84.956C270.976 87.2212 273.167 88.7033 275.432 88.2667C277.697 87.8299 279.179 85.6401 278.743 83.3749C278.306 81.1096 276.116 79.6267 273.851 80.0631Z" fill="white"/>
<path d="M271.527 100.665C272.897 101.671 272.305 103.354 270.79 102.584C252.077 93.068 237.375 72.8674 239.399 51.9491C241.099 34.3759 253.275 19.7681 269.242 14.5701C281.283 11.1592 297.006 13.5666 306.474 22.6077C311.152 27.0743 313.926 33.3995 313.441 39.9658C312.788 48.8087 305.348 54.8336 297.021 53.7747C293.773 53.3631 290.888 52.5887 288.075 51.8333C283.561 50.6212 279.228 49.4584 273.862 49.92C261.08 51.0191 251.716 62.7438 252.617 76.0773C253.268 85.7045 263.945 95.0995 271.527 100.665ZM298.828 31.6234C301.1 31.2271 302.622 29.0638 302.226 26.7911C301.83 24.5183 299.665 22.9968 297.393 23.3931C295.12 23.7895 293.599 25.9534 293.996 28.2262C294.392 30.4987 296.555 32.0195 298.828 31.6234ZM285.898 33.8779C288.171 33.4816 289.692 31.3183 289.296 29.0456C288.9 26.7728 286.736 25.2513 284.463 25.6476C282.19 26.0439 280.668 28.208 281.065 30.4808C281.461 32.7535 283.625 34.2742 285.898 33.8779Z" fill="white"/>
</svg>
